<?xml version="1.0" encoding="UTF-8"?>
<svg version="1.1" xmlns="http://www.w3.org/2000/svg" width="512" height="512">
<path d="M0 0 C16.83746698 14.40170982 27.41596472 35.12512046 29.23828125 57.19921875 C30.48249039 80.44815529 24.63987795 102.54827799 9.12597656 120.31884766 C-5.80685321 136.87345942 -25.5384976 148.37408158 -48.09667969 149.82861328 C-72.79186572 151.04756195 -94.79380448 144.5863022 -113.48974609 128.06835938 C-116.93797127 124.8580606 -120.03939616 121.37584198 -122.96875 117.69140625 C-127.19162991 119.00926245 -131.05989418 120.61378978 -135.01171875 122.59765625 C-136.16994141 123.17773438 -137.32816406 123.7578125 -138.52148438 124.35546875 C-139.12178467 124.6587207 -139.72208496 124.96197266 -140.34057617 125.27441406 C-142.10438922 126.16521436 -143.87148527 127.04950488 -145.63867188 127.93359375 C-151.48884254 130.87311999 -157.30855544 133.86092653 -163.09021091 136.93310738 C-175.89500033 143.72858397 -188.8520353 150.21499738 -201.81640625 156.69921875 C-203.02215802 157.30280878 -204.22787602 157.90646628 -205.43356133 158.51018906 C-211.71781514 161.65689585 -218.00306061 164.80161099 -224.28930664 167.94433594 C-230.13376985 170.86626426 -235.97595973 173.79270304 -241.81716543 176.72113717 C-246.86325009 179.25070217 -251.91085972 181.77720525 -256.95968431 184.30129707 C-259.96288375 185.80276941 -262.96545055 187.30547428 -265.96647835 188.81128311 C-269.29096451 190.47839024 -272.61791262 192.14047678 -275.94555664 193.80126953 C-276.93709747 194.2998497 -277.92863831 194.79842987 -278.95022583 195.31211853 C-279.85107407 195.7604454 -280.7519223 196.20877228 -281.68006897 196.67068481 C-282.46472566 197.06328554 -283.24938234 197.45588627 -284.05781651 197.86038399 C-285.96875 198.69140625 -285.96875 198.69140625 -287.96875 198.69140625 C-287.7521875 199.83996094 -287.535625 200.98851562 -287.3125 202.171875 C-284.08302358 219.90620457 -284.34271069 235.53732531 -290.06640625 252.81640625 C-290.8892857 255.4382213 -291.45351001 257.99639204 -291.96875 260.69140625 C-290.89882813 261.14128906 -289.82890625 261.59117187 -288.7265625 262.0546875 C-263.27753854 272.75994667 -237.87402594 283.56768828 -212.50366211 294.45800781 C-200.24852732 299.71782022 -187.98927121 304.96760075 -175.71875 310.19140625 C-175.09657026 310.45629097 -174.47439053 310.72117569 -173.83335686 310.99408722 C-167.26091494 313.79196857 -160.68752086 316.58760683 -154.11352539 319.38183594 C-153.02736938 319.84380371 -151.94121338 320.30577148 -150.82214355 320.78173828 C-148.8123228 321.63654098 -146.80225307 322.49075865 -144.79187012 323.34423828 C-143.88996948 323.72789551 -142.98806885 324.11155273 -142.05883789 324.50683594 C-141.20574539 324.86946533 -140.35265289 325.23209473 -139.47370911 325.60571289 C-136.23687587 327.00861338 -133.03490717 328.48433871 -129.84014893 329.98040771 C-127.8562537 330.86454463 -127.8562537 330.86454463 -125.10546875 330.66015625 C-122.57825456 329.51436261 -121.47281418 328.38304725 -119.78125 326.19140625 C-106.1496562 309.73339127 -86.74650931 298.90019693 -65.328125 296.8203125 C-39.65617224 295.41770581 -17.97319777 301.62685073 2.21875 317.87890625 C18.91483803 333.46668865 29.03830827 354.7491332 30.234375 377.56640625 C30.68027939 401.09141304 23.77633182 423.07563016 7.36328125 440.35546875 C6.59371094 441.12632812 5.82414062 441.8971875 5.03125 442.69140625 C4.27199219 443.46226562 3.51273437 444.233125 2.73046875 445.02734375 C-13.49213322 460.58617314 -35.69163704 468.14962409 -57.96484375 467.83984375 C-78.63146776 466.81860615 -97.49866748 459.47714143 -112.96875 445.69140625 C-113.72800781 445.02625 -114.48726563 444.36109375 -115.26953125 443.67578125 C-131.00008088 429.00480232 -140.20195785 407.11915315 -141.08984375 385.78125 C-141.45686569 367.66763764 -141.45686569 367.66763764 -137.96875 360.69140625 C-138.4932222 360.52723206 -139.0176944 360.36305786 -139.55805969 360.19390869 C-145.78242023 358.18899071 -151.75789731 355.75977512 -157.76171875 353.17578125 C-158.79992264 352.73240417 -159.83812653 352.2890271 -160.90779114 351.83221436 C-164.32534715 350.3718684 -167.74077132 348.90660328 -171.15625 347.44140625 C-173.57601086 346.40652448 -175.99593567 345.37202597 -178.41601562 344.33789062 C-182.80897412 342.46051963 -187.20145522 340.58204035 -191.5933094 338.7020874 C-199.27369789 335.41460328 -206.95786825 332.13607279 -214.64453125 328.86328125 C-215.7493988 328.39284393 -216.85426636 327.92240662 -217.99261475 327.43771362 C-222.42225094 325.55191995 -226.85207441 323.66656678 -231.28204346 321.78155518 C-242.97699418 316.80502159 -254.66952544 311.82308769 -266.35073853 306.81439209 C-270.75532592 304.92584467 -275.16123946 303.04040008 -279.56745338 301.15565109 C-282.58118266 299.86624505 -285.59386485 298.57447303 -288.60522461 297.27954102 C-291.92379331 295.85262884 -295.24480738 294.43155986 -298.56640625 293.01171875 C-299.55020767 292.58686188 -300.53400909 292.162005 -301.54762268 291.72427368 C-302.45624557 291.33718231 -303.36486847 290.95009094 -304.30102539 290.55126953 C-305.08635147 290.21427032 -305.87167755 289.87727112 -306.68080139 289.53005981 C-309.12302704 288.63485559 -311.38700623 288.02021554 -313.96875 287.69140625 C-316.19798615 289.04875092 -316.19798615 289.04875092 -318.28125 291.12890625 C-335.56759191 305.7953271 -357.86475285 309.94333788 -379.96875 308.69140625 C-402.17071557 306.41832365 -422.96875569 294.90825369 -437.28125 277.87890625 C-452.00461551 258.18562833 -458.45554461 235.33807074 -455.50390625 210.83203125 C-452.13222749 191.918709 -444.48355627 176.42922913 -430.96875 162.69140625 C-430.20820313 161.91796875 -429.44765625 161.14453125 -428.6640625 160.34765625 C-412.24349692 144.62698363 -390.41368677 137.6182276 -367.96875 137.69140625 C-342.90540853 138.64562503 -322.1314965 149.70921827 -304.96875 167.69140625 C-303.9701292 168.69278355 -302.97031182 169.69297051 -301.96875 170.69140625 C-301.4441516 170.41421627 -300.9195532 170.13702629 -300.37905788 169.85143661 C-283.16108332 160.7714283 -265.78276036 152.03087955 -248.36661649 143.33964252 C-244.5035969 141.41131453 -240.64175307 139.48063452 -236.7797699 137.55023193 C-229.50690314 133.91533644 -222.23302176 130.2824764 -214.95874876 126.65039611 C-206.6601033 122.50671319 -198.36262935 118.36068694 -190.06524003 114.21448946 C-173.03435438 105.70423618 -156.00204193 97.19684224 -138.96875 88.69140625 C-139.18096191 86.84240723 -139.18096191 86.84240723 -139.39746094 84.95605469 C-139.58278558 83.32097525 -139.76800118 81.68588344 -139.953125 80.05078125 C-140.0464209 79.24044434 -140.1397168 78.43010742 -140.23583984 77.59521484 C-142.88544578 54.08294599 -137.58227014 31.51825539 -123.265625 12.4921875 C-91.53179988 -26.20365028 -38.56115798 -29.98637417 0 0 Z " fill="#47A1FF" transform="translate(468.96875,32.30859375)"/>
</svg>
